<?xml version="1.0" encoding="UTF-8"?>
<svg width="16px" height="15px" viewBox="0 0 16 15" version="1.1" xmlns="http://www.w3.org/2000/svg" xmlns:xlink="http://www.w3.org/1999/xlink">
    <!-- Generator: Sketch 55.2 (78181) - https://sketchapp.com -->
    <title>heart</title>
    <desc>Created with Sketch.</desc>
    <g id="Page-1" stroke="none" stroke-width="1" fill="none" fill-rule="evenodd">
        <g id="Twitter" transform="translate(-797.000000, -709.000000)" fill="#888888" fill-rule="nonzero">
            <g id="Home" transform="translate(665.000000, 207.000000)">
                <g id="Group-2-Copy" transform="translate(14.000000, 299.000000)">
                    <g id="heart" transform="translate(118.000000, 203.000000)">
                        <path d="M8,14.3157895 C7.77221681,14.3157895 7.55261231,14.2328008 7.38146972,14.0820463 C6.73510744,13.5136476 6.11193847,12.9795002 5.56213378,12.5083308 L5.55932619,12.5058755 C3.94738769,11.124409 2.55541994,9.93138558 1.58691406,8.75616303 C0.504272469,7.44233961 0,6.19665034 0,4.83580819 C0,3.51363676 0.450805656,2.29385076 1.26928712,1.40098609 C2.09753419,0.497563663 3.23400878,0 4.46972656,0 C5.39331056,0 6.23913575,0.293652183 6.98364256,0.872731335 C7.359375,1.1650331 7.69995119,1.52276826 8,1.94004409 C8.30017091,1.52276826 8.640625,1.1650331 9.0164795,0.872731335 C9.76098631,0.293652183 10.6068115,0 11.5303955,0 C12.7659912,0 13.9025879,0.497563663 14.730835,1.40098609 C15.5493164,2.29385076 16,3.51363676 16,4.83580819 C16,6.19665034 15.4958496,7.44233961 14.413208,8.75604027 C13.4447022,9.93138558 12.0528564,11.1242862 10.4411621,12.50563 C9.89038087,12.9775359 9.26623534,13.5125427 8.61840819,14.0822918 C8.44738769,14.2328008 8.22766112,14.3157895 8,14.3157895 L8,14.3157895 Z M4.46972656,0.94258424 C3.49890137,0.94258424 2.60705566,1.33223808 1.95825194,2.03985146 C1.29980469,2.75814533 0.937133781,3.75106291 0.937133781,4.83580819 C0.937133781,5.98033964 1.36010744,7.00394832 2.30847169,8.15474076 C3.22509766,9.26710802 4.58850097,10.4355785 6.16711425,11.7885638 L6.17004394,11.7910191 C6.72192381,12.2640299 7.34753419,12.8002643 7.99865722,13.372837 C8.65368653,12.7991594 9.28027344,12.2620657 9.83325194,11.7883183 C11.4117432,10.435333 12.7750244,9.26710802 13.6916504,8.15474076 C14.6398926,7.00394832 15.0628662,5.98033964 15.0628662,4.83580819 C15.0628662,3.75106291 14.7001953,2.75814533 14.0417481,2.03985146 C13.3930664,1.33223808 12.5010986,0.94258424 11.5303955,0.94258424 C10.8192139,0.94258424 10.1662597,1.16994368 9.58972169,1.6182789 C9.07592775,2.01799943 8.71801756,2.52329722 8.50817872,2.87685837 C8.40026856,3.05867231 8.21032716,3.16719595 8,3.16719595 C7.78967284,3.16719595 7.59973144,3.05867231 7.49182128,2.87685837 C7.2821045,2.52329722 6.92419434,2.01799943 6.41027831,1.6182789 C5.83374025,1.16994368 5.18078612,0.94258424 4.46972656,0.94258424 Z" id="Shape"></path>
                    </g>
                </g>
            </g>
        </g>
    </g>
</svg>