<?xml version="1.0" encoding="UTF-8"?>
<svg width="24px" height="17px" viewBox="0 0 24 17" version="1.1" xmlns="http://www.w3.org/2000/svg" xmlns:xlink="http://www.w3.org/1999/xlink">
    <!-- Generator: Sketch 55.2 (78181) - https://sketchapp.com -->
    <title>photo</title>
    <desc>Created with Sketch.</desc>
    <g id="Page-1" stroke="none" stroke-width="1" fill="none" fill-rule="evenodd">
        <g id="Twitter" transform="translate(-1141.000000, -491.000000)" fill="#54B3ED" fill-rule="nonzero">
            <g id="Post-Tweet" transform="translate(1076.000000, 207.000000)">
                <g id="photo" transform="translate(65.000000, 284.000000)">
                    <path d="M21.4285732,0 L2.57142678,0 C1.15126594,0 0,1.14167397 0,2.55000249 L0,14.4499975 C0,15.858326 1.15126594,17 2.57142678,17 L21.4285732,17 C22.8487341,17 24,15.858326 24,14.4499975 L24,2.55000249 C24,1.14167397 22.8487341,0 21.4285732,0 Z M22.2857322,9.8480897 L16.8917125,4.49906103 C16.5570253,4.16721208 16.0144141,4.16721208 15.6797268,4.49906103 L8.57143933,11.5480748 L5.74884644,8.74899878 C5.41415917,8.41714982 4.87154794,8.41714982 4.53686067,8.74899878 L1.71426778,11.5480748 L1.71426778,2.55000249 C1.71426778,2.08054305 2.09802309,1.69998506 2.57142678,1.69998506 L21.4285732,1.69998506 C21.9019769,1.69998506 22.2857322,2.08054305 22.2857322,2.55000249 L22.2857322,9.8480897 L22.2857322,9.8480897 Z" id="Shape"></path>
                    <circle id="Oval" cx="8.5" cy="6.5" r="2.5"></circle>
                </g>
            </g>
        </g>
    </g>
</svg>