<?xml version="1.0" encoding="UTF-8"?>
<svg width="10px" height="18px" viewBox="0 0 10 18" version="1.1" xmlns="http://www.w3.org/2000/svg" xmlns:xlink="http://www.w3.org/1999/xlink">
    <!-- Generator: Sketch 55.2 (78181) - https://sketchapp.com -->
    <title>back</title>
    <desc>Created with Sketch.</desc>
    <g id="Page-1" stroke="none" stroke-width="1" fill="none" fill-rule="evenodd">
        <g id="Twitter" transform="translate(-1095.000000, -294.000000)" fill="#1CA1F2" fill-rule="nonzero">
            <g id="Post-Tweet" transform="translate(1076.000000, 207.000000)">
                <g id="back" transform="translate(24.000000, 96.000000) scale(-1, 1) translate(-24.000000, -96.000000) translate(19.000000, 87.000000)">
                    <path d="M9.7284857,7.90251415 L2.15369023,0.273865369 C1.97849445,0.0972814391 1.74462332,0 1.49525303,0 C1.24588274,0 1.01201161,0.0972814391 0.836815832,0.273865369 L0.278984739,0.835533277 C-0.0839998694,1.20152333 -0.0839998694,1.7963617 0.278984739,2.16179427 L6.63972608,8.56787459 L0.27192709,14.9810629 C0.0967313158,15.1576468 0,15.3930456 0,15.644054 C0,15.8953412 0.0967313158,16.1307399 0.27192709,16.3074632 L0.829758183,16.8689918 C1.00509234,17.0455757 1.23882509,17.1428571 1.48819538,17.1428571 C1.73756567,17.1428571 1.9714368,17.0455757 2.14663258,16.8689918 L9.7284857,9.23337441 C9.90409663,9.05623299 10.0005512,8.81971924 10,8.56829271 C10.0005512,8.31589058 9.90409663,8.07951619 9.7284857,7.90251415 Z" id="Path"></path>
                </g>
            </g>
        </g>
    </g>
</svg>