<?xml version="1.0" encoding="UTF-8"?>
<svg width="18px" height="16px" viewBox="0 0 18 16" version="1.1" xmlns="http://www.w3.org/2000/svg" xmlns:xlink="http://www.w3.org/1999/xlink">
    <!-- Generator: Sketch 55.2 (78181) - https://sketchapp.com -->
    <title>comment</title>
    <desc>Created with Sketch.</desc>
    <g id="Page-1" stroke="none" stroke-width="1" fill="none" fill-rule="evenodd">
        <g id="Twitter" transform="translate(-733.000000, -708.000000)" fill="#888888" fill-rule="nonzero">
            <g id="Home" transform="translate(665.000000, 207.000000)">
                <g id="Group-2-Copy" transform="translate(14.000000, 299.000000)">
                    <g id="comment" transform="translate(54.000000, 202.000000)">
                        <path d="M2.62002933,15.4285714 L1.34460493,15.4285714 L2.24648526,14.5506171 C2.73276877,14.0772343 3.03643622,13.4615314 3.11807634,12.7936114 C1.84913243,11.98296 0.921224463,10.9164343 0.424515814,9.69332571 C-0.071840635,8.47114286 -0.134215379,7.12573714 0.244153834,5.80251429 C0.698140539,4.21477714 1.76294892,2.76761143 3.24236797,1.72755429 C4.85002329,0.597394286 6.85136855,0 9.03008209,0 C11.7746765,0 14.0880716,0.767622857 15.720064,2.21982857 C17.1902906,3.52813714 18,5.29285714 18,7.18896 C18,8.11014857 17.807311,9.00648 17.4273217,9.85306286 C17.0340896,10.7290971 16.4582766,11.5091314 15.7158728,12.1714286 C14.0816968,13.62936 11.7697457,14.4 9.03004687,14.4 C8.01299691,14.4 6.95171053,14.2678286 6.00418499,14.0252914 C5.1073059,14.9209371 3.89196694,15.4285714 2.62002933,15.4285714 Z M9.03008209,1.02857143 C4.66141981,1.02857143 1.98078505,3.56478857 1.26204908,6.07834286 C0.582865249,8.45365714 1.58406618,10.6981029 3.94028888,12.0822857 L4.2035589,12.2369486 L4.19545828,12.53616 C4.17939793,13.1284114 4.03436168,13.6988571 3.77475455,14.2145143 C4.40691959,14.0062971 4.98054887,13.6288114 5.42974564,13.1121943 L5.65311133,12.8552914 L5.98435609,12.9517371 C6.9139194,13.2223886 7.99556297,13.3714286 9.03008209,13.3714286 C14.4670748,13.3714286 16.9433979,10.16664 16.9433979,7.18896 C16.9433979,5.58521143 16.2557612,4.09008 15.0071393,2.97901714 C13.5732246,1.70304 11.50637,1.02857143 9.03008209,1.02857143 Z" id="Shape"></path>
                    </g>
                </g>
            </g>
        </g>
    </g>
</svg>